<svg id="Calque_2" data-name="Calque 2" xmlns="http://www.w3.org/2000/svg" width="1972.749" height="1212" viewBox="0 0 1972.749 1212">
  <g id="Calque_1" data-name="Calque 1">
    <path id="Tracé_218" data-name="Tracé 218" d="M0,97.014c10.463,2.21,20.926,4.015,30.971,6.683,38.573,10.16,74.426,2.695,105.745-13.959,35.225-18.864,66.44-41.985,101.142-61.415,20.019-11.157,41.015-22.744,67.8-23.58,5.127-.135,10.114-3.1,15.136-4.743H355.67l32.575,9.594C433.1,22.717,460.4,49.666,483.282,80.575c18.554,25.062,33.621,51.983,63.684,71.17,32.575,20.723,72.578,20.939,101.351-2.91,22.879-18.864,42.131-40.207,64.138-59.717,17.089-15.172,36.132-27.865,65.5-27.137,25.39.539,42.34,11.345,58.418,23.9C867.167,109.9,886.488,140.131,907,169.5c21.184,29.485,65.713,43.956,107.8,35.033,4.673-1.024,8.649-4.042,12.87-6.225,30.935-15.819,47.292-40.045,62.777-64.676,13.6-21.559,30.377-41.15,56.5-55.325,38.364-20.8,79.9-23.741,123.916-15.387,50.222,9.567,93.364,29.05,132.53,55.055,34.876,23.149,58.767,52.441,82.971,81.734,28.285,33.928,53.465,69.554,89.493,99.412,43.177,35.518,92.213,62.6,159.28,61.981,13.532,0,27.169,1.4,40.666.835,51.2-2.129,80.006-29.859,108.117-57.858,34.179-33.632,54.407-73,75.891-111.889a31.908,31.908,0,0,1,6.975-6.252V556.186h5.964V1212H9.208v-45.138H.14Z" fill="#ececec"/>
  </g>
</svg>
